<?xml version="1.0" encoding="utf-8"?>
<!-- Generator: Adobe Illustrator 26.5.0, SVG Export Plug-In . SVG Version: 6.00 Build 0)  -->
<svg version="1.1" id="Layer_1" xmlns="http://www.w3.org/2000/svg" xmlns:xlink="http://www.w3.org/1999/xlink" x="0px" y="0px"
	 viewBox="0 0 180 60" style="enable-background:new 0 0 180 60;" xml:space="preserve">
<style type="text/css">
	.st0{fill:#333366;}
	.st1{fill-rule:evenodd;clip-rule:evenodd;fill:#333366;}
	.st2{fill-rule:evenodd;clip-rule:evenodd;fill:#FFFFFF;}
</style>
<path class="st0" d="M5,0h170c2.8,0,5,2.2,5,5v50c0,2.8-2.2,5-5,5H5c-2.8,0-5-2.2-5-5V5C0,2.2,2.2,0,5,0z"/>
<path class="st1" d="M49.3,37.8L52.6,22H30.4L27,37.8H49.3z"/>
<path class="st2" d="M43.6,25.3c2.6,0.6,2.7,1.2,2.7,1.2c1.7,0,2.1,0,2.4,0.3c1,0.9-0.7,3.1-0.7,3.1c-0.2,0.1-18.7,7.4-18.7,7.4
	h19.5l3.1-14.7h-21C30.9,22.6,43.2,25.3,43.6,25.3z"/>
<path class="st2" d="M45.5,27.5c-0.3,0.1-1.1,0.3-1.3,0.3c-0.3,0-0.4,0-0.4,0.1c0,0.1,0.4,0.1,0.5,0.1c0.6,0,3-0.2,3.6-0.1
	c0.4,0.1-0.1,0.9-0.2,1.5c0,0.2,0.1,0.1,0.2,0c0.2-0.3,0.6-1.1,0.7-1.5c0.1-0.7-0.4-0.8-1.2-0.8H46c-0.1,0-0.1,0-0.2,0.1
	C45.7,27.3,45.5,27.4,45.5,27.5L45.5,27.5z"/>
<path class="st2" d="M37.7,32.4l-10,4.9l2.4-11.3h10.1c0.2,0,5.4,0,5.5,1h-9.1l1.4,4.3c1.6-0.8,5.6-2.4,8-2.5c1,0,1.4,0.1,1.2,0.3
	c-0.1,0.1-1.1,0.2-1.9,0.4c-1.3,0.3-1.4,0.3-2.8,0.8C41,30.9,39.7,31.5,37.7,32.4L37.7,32.4z"/>
<path class="st2" d="M58.6,37.7c-3.9,0-6.2-1.5-5.4-5c1.3-6,2.1-10,2.1-10h3.3c0,0-2,9.2-1.9,9c-0.5,2.3,0,3.7,2.5,3.7
	s3.6-1.4,4.1-3.7c0.3-1.3,1.9-9,1.9-9h3.3c-2.2,10,0,0-2.1,10C65.4,36.1,62.5,37.7,58.6,37.7L58.6,37.7z"/>
<path class="st2" d="M85.8,31.8c-0.5,0-1.6-0.1-2.1-0.2l0.4-2.1c0.4,0,0.9,0.1,1.4,0.1c2.2,0,3-1.5,3.2-2.4c0.3-1.6-0.5-2.2-1.6-2.2
	h-2.7l-2.6,12.4h-3.3l3.1-14.7h7c3.2,0,3.6,2.8,3.2,4.6C91.3,30.1,88.7,31.8,85.8,31.8L85.8,31.8z"/>
<path class="st2" d="M78.9,25.1h-3.5c-1.8,0-2.6,0.4-2.7,1.1c-0.5,2.4,5.8,4.2,5.2,7.8c-0.3,2-2.1,3.5-6.1,3.5h-5l0.5-2.4h4
	c1.2,0,2.8,0.1,3-1.2c0.5-2.1-5.8-4.2-5.3-7.7c0.3-2.1,2.2-3.5,6-3.5h4.4L78.9,25.1L78.9,25.1z"/>
<path class="st2" d="M103.1,25.1h-3.5c-1.8,0-2.6,0.4-2.7,1.1c-0.5,2.4,5.8,4.2,5.2,7.8c-0.3,2-2.1,3.5-6.1,3.5h-5l0.5-2.4h4
	c1.2,0,2.8,0.1,3-1.2c0.5-2.1-5.8-4.2-5.3-7.7c0.3-2.1,2.2-3.5,6-3.5h4.4L103.1,25.1L103.1,25.1z"/>
<path class="st2" d="M104.2,34.8c-0.7,0-1.3,0.6-1.3,1.3s0.6,1.3,1.3,1.3s1.3-0.6,1.3-1.3S104.9,34.8,104.2,34.8z"/>
<path class="st2" d="M153,22.7l-3.2,14.7h-2.7l2.4-10.9L143,37.4h-2.8l-1.5-10.2l-2.2,10.2h-2.7l3.1-14.7h3.9l1.6,10.8l6.3-10.8H153
	z"/>
<path class="st2" d="M112.8,37.7c-1.9,0-3.7-0.4-5-1.4c-1.3-0.9-2.1-2.4-2.1-4.4c0-0.6,0.1-1.2,0.2-1.9c1.1-5.3,5.5-7.6,9.9-7.6
	c1.1,0,2.2,0.1,3.3,0.3l0.2,0l-0.5,2.4l-0.2,0c-0.7-0.1-1.2-0.1-1.9-0.1c-0.6,0-1.2,0-1.8,0.1c-1.6,0.2-2.1,0.5-2.9,1.1
	c-1.3,0.8-2.5,2.2-2.9,4c-0.1,0.5-0.2,0.9-0.2,1.3c0,1.3,0.5,2.2,1.5,2.8c0.9,0.6,2.2,0.9,3.8,0.9c0.9,0,1.3,0,2.2-0.1l0.3,0
	l-0.5,2.3l-0.2,0C115,37.6,114.1,37.7,112.8,37.7L112.8,37.7z"/>
<path class="st2" d="M127.7,22.6c-4.5,0-8.2,2.4-9.3,7.5c-0.9,4.1,1.6,7.5,6.1,7.5c4.5,0,8.2-2.2,9.3-7.5
	C134.7,25.8,132.1,22.6,127.7,22.6L127.7,22.6z M130.8,30.2c-0.7,3.7-2.9,5.3-5.7,5.3s-4.3-2.4-3.8-5.3c0.7-3.6,3-5.2,5.7-5.2
	C129.8,24.9,131.3,27.1,130.8,30.2z"/>
</svg>
