<?xml version="1.0" encoding="utf-8"?>
<!-- Generator: Adobe Illustrator 26.5.0, SVG Export Plug-In . SVG Version: 6.00 Build 0)  -->
<svg version="1.1" id="Layer_1" xmlns="http://www.w3.org/2000/svg" xmlns:xlink="http://www.w3.org/1999/xlink" x="0px" y="0px"
	 viewBox="0 0 180 60" style="enable-background:new 0 0 180 60;" xml:space="preserve">
<style type="text/css">
	.st0{fill:#007BC4;}
	.st1{fill:#FFFFFF;}
</style>
<path class="st0" d="M5,0h170c2.8,0,5,2.2,5,5v50c0,2.8-2.2,5-5,5H5c-2.8,0-5-2.2-5-5V5C0,2.2,2.2,0,5,0z"/>
<path class="st1" d="M62.2,22.5v-8.3H35v4.9h3v21.4h-3v4.9h27.2v-8.3h-5.4v3.4h-13v-8.4h11.8v-4.7H43.8v-8.3h13v3.4
	C56.8,22.5,62.2,22.5,62.2,22.5z"/>
<path class="st1" d="M89.8,14.2l-8.7,22l-8.6-22h-8.1l12.7,31.4h3.5l12.6-31.4C93.2,14.2,89.8,14.2,89.8,14.2z"/>
<path class="st1" d="M100,29.2V18h17c2.8,0,4.5,0.5,5.6,1.5c1,0.9,1.5,2.2,1.5,3.9c0,1.8-0.5,3.2-1.5,4.2c-1,1.1-2.6,1.6-5.5,1.6
	L100,29.2L100,29.2z M131.7,45.4l-11.2-12.7c4.8-0.5,8.4-3.9,8.4-9.4c0-2.8-0.8-4.9-2.5-6.4c-2-1.8-4.8-2.7-9.4-2.7H95.4v31.2h4.6
	V33h15.3L126,45.4H131.7z"/>
<path class="st1" d="M143.3,17.8c0-2.2-1.8-3.8-4-3.8s-4,1.7-4,3.8c0,2.2,1.8,3.8,4,3.8C141.5,21.7,143.3,20,143.3,17.8z"/>
<path class="st1" d="M142.8,41.2c0,1.8,0.8,2.6,2.5,3.4v0.8h-11.6v-0.8c1.7-0.8,2.5-1.6,2.5-3.4V29.3c0-1.6-0.3-2.5-2.5-3.9v-0.8
	h9.1V41.2z"/>
</svg>
