<?xml version="1.0" encoding="utf-8"?>
<!-- Generator: Adobe Illustrator 27.1.1, SVG Export Plug-In . SVG Version: 6.00 Build 0)  -->
<svg version="1.1" id="Layer_1" xmlns="http://www.w3.org/2000/svg" xmlns:xlink="http://www.w3.org/1999/xlink" x="0px" y="0px"
	 viewBox="0 0 180 60" style="enable-background:new 0 0 180 60;" xml:space="preserve">
<style type="text/css">
	.st0{fill:#FFFFFF;}
	.st1{fill-rule:evenodd;clip-rule:evenodd;fill:#D8062E;}
	.st2{fill-rule:evenodd;clip-rule:evenodd;fill:#414042;}
</style>
<path class="st0" d="M5,0h170c2.8,0,5,2.2,5,5v50c0,2.8-2.2,5-5,5H5c-2.8,0-5-2.2-5-5V5C0,2.2,2.2,0,5,0z"/>
<path class="st1" d="M45.9,18.6c0.2,0,0.9,0.5,1.1,0.6l4.5,2.6c0.4,0.2,0.8,0.4,1.1,0.7l1.1,0.7c0.2,0.1,0.4,0.2,0.6,0.3l5.3,3.1
	c0.1,0,0.2,0.1,0.3,0.2c0.2,0.1,0.4,0.2,0.6,0.3l1.1,0.7c0.2,0.1,0.4,0.2,0.6,0.3l1.1,0.7c0.2,0.1,0.3,0.3,0.3,0.5V44
	c0,0.2-0.1,0.3-0.2,0.4c-0.1,0.1-0.3,0.2-0.4,0.2c-1,0.6-0.9,0.5-1.8,0c-0.3-0.1-0.6-0.3-0.6-0.6c0-0.8,0-1.7,0-2.5V31.4
	c0-1,0-0.7-1.1-1.4c-1.5-0.9-3-1.7-4.4-2.6l-3.6-2.1c-0.3-0.1-0.5-0.3-0.8-0.5l-1.1-0.7c-0.1-0.1-0.3-0.1-0.4-0.2
	c-0.3-0.2-0.5-0.3-0.8-0.5s-0.5-0.3-0.8-0.5l-1.6-1c-0.1-0.1-0.3-0.1-0.4-0.2c-0.1-0.1-0.3-0.1-0.4-0.2v16.9c0,1.1,0,1.3,0.9,1.9
	L60.6,49c0.4,0.2,1,0.7,1.5,0.7c0.4,0,0.8-0.2,1.1-0.4l15.1-8.9c1-0.6,0.9-0.9,0.9-1.9V21.6c-0.1,0.1-0.2,0.1-0.3,0.2l-0.7,0.4
	c-0.7,0.4-2.3,1.4-3,1.7c-0.6,0.3-1.4,0.8-2,1.2l-1.3,0.8c-1,0.6-2,1.1-3,1.7c-0.5,0.3-0.8,0.1-1.4-0.3c-0.8-0.5-0.5-0.6-0.6-1.5
	c0-0.2,0-0.5,0.1-0.6s0.2-0.2,0.4-0.3l1.3-0.8c1.1-0.7,2.3-1.3,3.5-2c0.1-0.1,0.3-0.2,0.4-0.2c0.1-0.1,0.3-0.2,0.4-0.3l3.1-1.8
	c0.2-0.1,2-1.2,2.2-1.3c0-0.1-0.1-0.1-0.2-0.1l-12.6-6.8c-0.4-0.2-0.9-0.4-1.3-0.7c-0.5-0.3-1-0.6-1.5-0.8c-0.3-0.1-0.6-0.2-1-0.1
	c-0.1,0-0.2,0.1-0.3,0.1c-0.5,0.2-1,0.5-1.5,0.8l-5.5,3c-0.1,0-0.1,0.1-0.3,0.1l-2,1.1c-0.1,0-0.1,0.1-0.3,0.1
	c-0.7,0.3-1.8,1-2.5,1.4l-2,1.1C47.2,17.9,46,18.5,45.9,18.6L45.9,18.6z"/>
<path class="st2" d="M124.7,32.5c0-1.3,0.4-2.2,1.1-2.9l0.1-0.1l0,0c0.6-0.5,1.5-1,2.3-1c0.9,0,1.9,0,2.7,0.4v7.7
	c-0.3,0-0.6,0.1-0.8,0.1c-1.4,0.1-3.1,0-4.2-1.1c-0.4-0.4-0.6-0.8-0.9-1.3C124.8,33.9,124.7,33.2,124.7,32.5L124.7,32.5z
	 M130.9,25.4l-0.5-0.2c-0.2,0-0.4-0.1-0.6-0.1c-1.6-0.3-3.3-0.1-4.8,0.5c-1.2,0.5-2.2,1.3-2.9,2.4c-0.3,0.5-0.7,1.3-0.9,1.8
	c-0.1,0.2-0.1,0.5-0.2,0.7c-0.4,1.5-0.3,3.4,0.2,4.9c0.2,0.7,0.6,1.3,0.9,1.8c0.2,0.2,0.3,0.3,0.5,0.5l0.7,0.7
	c0.4,0.3,0.6,0.5,1.1,0.7c0.8,0.5,1.6,0.7,2.5,0.9c0.5,0.1,0.9,0.1,1.2,0.1c0.2,0,0.5,0,0.6,0h1.9c0.2,0,0.4,0,0.6,0
	c0.2,0,0.4,0,0.6,0c0.7-0.1,1.4-0.2,2.1-0.3l0.5-0.1c0.1,0,0.2,0,0.2-0.1V18.8c0-0.1,0-0.1-0.1-0.1h-3.8L130.9,25.4L130.9,25.4z
	 M98.7,28.6l0.9,0.3v7.8l-0.8,0.1c-0.2,0-0.3,0-0.5,0h-0.6c-0.7,0-1.2-0.1-1.8-0.3c-0.5-0.1-1-0.4-1.3-0.8
	C91.7,32.8,93.8,27.3,98.7,28.6L98.7,28.6z M99.6,25.4c-0.1,0-0.2-0.1-0.2-0.1c-3.6-1.4-7.9,0.5-9.3,4.1c-0.1,0.2-0.2,0.5-0.2,0.7
	c-0.6,2.1-0.4,4.8,0.7,6.6c0.7,1.3,1.9,2.2,3.2,2.7c1.1,0.5,2.2,0.6,3.5,0.7c0.2,0,0.4,0,0.7,0c0.5,0,1.4,0,1.9-0.1
	c0.2,0,0.4,0,0.6,0c1-0.1,1.4-0.2,2.4-0.4l0.6-0.1V18.8h-3.8L99.6,25.4L99.6,25.4z M105.6,26.3v19.5h3.9V28.9
	c0.3-0.1,0.4-0.1,0.9-0.2c2-0.3,4.2,0,5,2.1c0.6,1.6,0.3,3.9-1.1,5.1l-0.1,0.1c-0.1,0-0.1,0.1-0.2,0.1c0,0-0.1,0-0.2,0.1
	c-0.2,0.1-0.3,0.2-0.6,0.3c-0.5,0.2-1.1,0.3-1.8,0.3v3.4c0,0.2,0.5,0,0.8,0c0.2,0,0.3,0,0.5,0c0.7,0,2.1-0.4,2.8-0.7
	c0.1-0.1,0.2-0.1,0.3-0.1c0.1-0.1,0.2-0.1,0.3-0.2c0.2-0.1,0.4-0.2,0.6-0.4c1.9-1.5,2.8-3.5,2.8-6.6c0-2-0.8-4-2.3-5.3
	c-0.3-0.3-0.5-0.4-0.9-0.7c-0.4-0.2-0.8-0.4-1.2-0.6c-0.6-0.2-1.6-0.5-2.2-0.5c-0.3,0-0.5,0-0.8,0c-1.6,0-2.4,0.1-3.9,0.4
	c-0.7,0.1-1.7,0.4-2.4,0.7C105.6,26.2,105.6,26.2,105.6,26.3L105.6,26.3z"/>
</svg>
