<?xml version="1.0" encoding="utf-8"?>
<!-- Generator: Adobe Illustrator 26.5.0, SVG Export Plug-In . SVG Version: 6.00 Build 0)  -->
<svg version="1.1" id="Layer_1" xmlns="http://www.w3.org/2000/svg" xmlns:xlink="http://www.w3.org/1999/xlink" x="0px" y="0px"
	 viewBox="0 0 180 60" style="enable-background:new 0 0 180 60;" xml:space="preserve">
<style type="text/css">
	.st0{fill:#FFCC00;}
	.st1{fill-rule:evenodd;clip-rule:evenodd;fill:#3C3C3B;}
	.st2{fill-rule:evenodd;clip-rule:evenodd;fill:#FFFFFF;}
</style>
<path class="st0" d="M5,0h170c2.8,0,5,2.2,5,5v50c0,2.8-2.2,5-5,5H5c-2.8,0-5-2.2-5-5V5C0,2.2,2.2,0,5,0z"/>
<path class="st1" d="M82.5,23.3h-2.6v14h2.6V23.3z M90.8,37.3h2.3l0-7.1c0-1.2-0.3-2.1-1-2.7c-0.7-0.7-1.6-1.1-2.6-1
	c-2.5,0-5.3,0.6-5.3,0.6v10.2h2.3v-8.6c0.8-0.2,1.9-0.3,2.6-0.3c1.1,0.1,1.7,0.8,1.7,2.2V37.3z M104.4,31.5c0.9-0.9,1.3-2,1.3-3.4
	l0,0c0-1.5-0.4-2.7-1.3-3.5c-0.9-0.9-2.1-1.3-3.8-1.3h-5.6v14h2.6v-4.5h3.2C102.3,32.8,103.5,32.4,104.4,31.5z M100.6,25.6
	c1.7,0,2.5,0.8,2.5,2.5h0c0,0.8-0.2,1.4-0.7,1.8c-0.4,0.4-1.1,0.7-1.8,0.7h-2.9v-5H100.6z M116.3,32c0,1.7-0.5,3-1.4,4
	c-0.9,1-2.2,1.5-3.7,1.5c-1.5,0-2.7-0.5-3.7-1.5c-0.9-1-1.4-2.4-1.4-4c0-1.7,0.5-3,1.4-4c0.9-1,2.2-1.5,3.7-1.5
	c1.5,0,2.7,0.5,3.7,1.5C115.8,29,116.3,30.3,116.3,32z M113.9,32c0-1-0.2-1.9-0.7-2.5c-0.5-0.6-1.2-0.9-1.9-0.9
	c-0.8,0-1.5,0.3-1.9,0.9c-0.5,0.6-0.7,1.4-0.7,2.5s0.2,1.9,0.7,2.5c0.5,0.6,1.2,0.9,1.9,0.9c0.8,0,1.5-0.3,1.9-0.9
	C113.6,33.9,113.9,33,113.9,32z M126.2,33.9c0,1-0.4,2-1.2,2.6c-0.8,0.7-1.9,1-3.2,1c-2.1,0-3.7-0.6-4.8-1.9l1.8-1.5
	c0.8,0.8,1.9,1.3,3.1,1.3c0.7,0,1.2-0.1,1.5-0.4c0.4-0.3,0.6-0.6,0.6-1c0-0.4-0.2-0.7-0.7-0.9c-0.3-0.1-0.9-0.2-2-0.4
	c-1.3-0.2-2.3-0.5-2.8-0.9c-0.7-0.5-1-1.2-1-2.1s0.4-1.7,1.2-2.4c0.8-0.6,1.9-1,3.2-1c1.6,0,3,0.5,4.1,1.6l-1.4,1.5
	c-0.8-0.7-1.8-1.1-2.8-1.1c-1.4,0-2,0.4-2,1.1c0,0.4,0.3,0.7,0.9,0.9c0.9,0.1,1.7,0.3,2.6,0.4C125.2,31.3,126.2,32.3,126.2,33.9
	L126.2,33.9z M130.5,37.4c0.4,0,0.8,0,1.2-0.1v-1.9c-0.2,0-0.4,0-0.6,0c-0.6,0-1-0.1-1.2-0.4c-0.2-0.2-0.2-0.6-0.2-1.2v-5.2h2v-1.9
	h-2v-3h-2.3V34c0,1.3,0.2,2.1,0.5,2.6C128.3,37.1,129.2,37.4,130.5,37.4z"/>
<path class="st2" d="M64.2,10.5c1.2,1.7,2.6,3.1,4.3,4.3c-0.5-2-1.4-3.8-2.5-5.5c-1.2-1.7-2.6-3.1-4.3-4.3
	C62.2,7,63.1,8.8,64.2,10.5z M60.1,30.3c-3.9,1.4-8.2,1.4-12.1,0C51.9,28.9,56.2,28.9,60.1,30.3z M62.4,21.5c-2-0.3-4-0.9-5.9-1.9
	c-1.8-1-3.5-2.2-4.8-3.7c2,0.3,4,0.9,5.9,1.9C59.3,18.7,61,20,62.4,21.5z M71.3,33.6c-1,0.5-2.1,1-3.2,1.3c1.8,5.8,7,10.1,13.3,10.9
	c-0.7,0.1-1.5,0.2-2.2,0.2c-8.9,0-16.1-7-16.1-15.7c0-8.7,7.1-15.8,16-15.8c0.8,0,1.6,0,2.3,0.2c-7.2,0.9-12.9,6.5-13.9,13.5
	C67.2,32.5,71.3,33.6,71.3,33.6z M68.5,45.6c-1.7,1.2-3.1,2.7-4.3,4.3c-1.1,1.7-2,3.5-2.5,5.5c1.7-1.2,3.1-2.7,4.3-4.3
	C67.1,49.5,68,47.6,68.5,45.6z M56.5,40.8c1.8-0.9,3.8-1.6,5.9-1.9c-1.4,1.5-3,2.8-4.8,3.7c-1.8,0.9-3.8,1.6-5.9,1.9
	C53.1,43,54.7,41.8,56.5,40.8z"/>
</svg>
