<?xml version="1.0" encoding="utf-8"?>
<!-- Generator: Adobe Illustrator 26.5.0, SVG Export Plug-In . SVG Version: 6.00 Build 0)  -->
<svg version="1.1" id="Layer_1" xmlns="http://www.w3.org/2000/svg" xmlns:xlink="http://www.w3.org/1999/xlink" x="0px" y="0px"
	 viewBox="0 0 180 60" style="enable-background:new 0 0 180 60;" xml:space="preserve">
<style type="text/css">
	.st0{fill:#ED2929;}
	.st1{fill-rule:evenodd;clip-rule:evenodd;fill:#FFFFFF;}
</style>
<path class="st0" d="M5,0h170c2.8,0,5,2.2,5,5v50c0,2.8-2.2,5-5,5H5c-2.8,0-5-2.2-5-5V5C0,2.2,2.2,0,5,0z"/>
<path class="st1" d="M93.3,18.8l0.1-0.5l0.5-4.1l0.5-4.1l-5,8.6l2.5-2l0.3,0.4l0.7,1L93.3,18.8z M151.2,27.8l0,2.2l0.3,0l1.1,0
	l9.3,0.4l-0.1-1.2l-0.1-1.8l-5.7-0.2l-1.3-0.1l-0.2-4.7l6.1,0l0-1l-0.1-1.8h-6.1l-0.1-3.9l6.3-0.2l-0.1-0.9l-0.1-1.8l-9.4,0.4l0,2.5
	l0,2.9L151.2,27.8z M116.8,32.1l1.1,0.1l-0.2,0.3l-2.3,4.2l-0.4,0.8l-0.6-2.4l-0.3-1.1l-1.5,2.4l-0.5,0.8l-1.2-5.5l1,0.1l0.1,0.3
	l0.6,2.9l0.5-0.9l1.4-2.4l0.3,1.1l0.5,2.1l0.4-0.8L116.8,32.1z M123.6,35.4c-0.1,0.8-0.5,1.5-1.1,2l0,0c-0.6,0.5-1.4,0.8-2.2,0.7
	c-0.3,0-0.7-0.1-1-0.2c-0.4-0.1-0.7-0.4-1-0.7c-0.5-0.6-0.7-1.3-0.5-2c0.1-0.8,0.6-1.5,1.2-2c0.6-0.5,1.3-0.8,2.1-0.8
	c0.6,0,1.1,0.2,1.6,0.6c0.1,0.1,0.2,0.2,0.3,0.3C123.5,33.8,123.7,34.6,123.6,35.4z M118.7,35.2c-0.1,0.5,0,1,0.3,1.3l0,0
	c0.2,0.3,0.5,0.4,0.8,0.5c0.2,0,0.3,0.1,0.5,0.1c0.5,0,1.1-0.2,1.5-0.5c0.4-0.3,0.7-0.8,0.8-1.3c0.1-0.5,0-1-0.4-1.4
	c0,0,0,0-0.1-0.1v0c0,0,0,0,0,0c-0.3-0.3-0.7-0.5-1.2-0.5c-0.5,0-1.1,0.2-1.5,0.5C119.1,34.2,118.8,34.7,118.7,35.2z M128.7,34.8
	c-0.1,0.9-0.6,1.5-1.4,1.7l1.4,2.4l-0.8-0.1l-0.5,0l-1.2-2.1l-0.6-1.1c0.2,0,0.5,0.1,0.7,0.1c0.6,0,1.2-0.2,1.3-0.8
	c0-0.2,0-0.4-0.1-0.6c-0.1-0.3-0.4-0.5-0.8-0.5l-1-0.1l-0.7,4.9l-0.2,0l-0.7-0.1l0.7-5.8l1.8,0.1c0.7,0,1.2,0.2,1.5,0.6
	C128.6,33.8,128.7,34.3,128.7,34.8z M132.9,38.7l0-0.4l-1.2-0.1l-0.9-0.1l0.5-4.6l0.1-0.5l-1-0.1l-0.7,6l0.9,0.1l2.2,0.2L132.9,38.7
	z M139.2,36.8c0.1-1.2-0.3-1.9-0.8-2.5c-0.7-0.6-1.7-0.9-2.5-0.9l-1.4-0.1l-0.6,6.2l0.9,0.1l0.4,0C136.6,39.7,138.9,39.5,139.2,36.8
	L139.2,36.8z M135.3,34.3l0.3,0c0.6,0,1.6,0.2,2.1,0.8c0.3,0.3,0.5,0.8,0.4,1.5c-0.2,1.7-1.2,2-2.3,2c-0.2,0-0.4,0-0.5,0l-0.4-0.1
	L135.3,34.3z M147.8,34.1l-1-0.1l-1.2,3l-0.3,0.9l-1.1-3l-0.4-1.2l-1.3,3l-0.4,0.9l-1.1-3.4l-0.2-0.6l-1.1-0.1l2.2,6.7l0.4-0.9
	l1.4-3.3l0.5,1.5l1,3l0.4-0.9l2.1-5.1L147.8,34.1z M150,34.3v0.6l0,6.2l-0.2,0l-0.9-0.1v-6.8L150,34.3z M155.9,35.6
	c0.5,0.6,0.9,1.4,0.9,2.5v0c0,2.8-2.6,3.3-4,3.2l-0.4,0l-1-0.1l-0.1-6.9l1.6,0.1C153.8,34.5,155.1,34.8,155.9,35.6z M152.5,35.5
	l0.1,4.8l0,0c0.1,0,0.2,0,0.2,0c0.3,0,0.5,0,0.8,0c0.9,0,1.3-0.3,1.5-0.5l0,0c0.5-0.4,0.8-0.9,0.7-1.8c0-0.7-0.2-1.1-0.5-1.5
	c-0.1-0.1-0.2-0.2-0.3-0.3c-0.5-0.4-1.2-0.6-2.4-0.7H152.5z M162.6,41.3l0,0.7l0,0.5l-3.6-0.3l-1-0.1l-0.3-7.2l4.5,0.3l0.1,0.7
	l0,0.3l-3.4-0.2l0.1,1.9l0.9,0.1l2.2,0.2l0,0.7l0,0.4l-3.2-0.3l0.1,2.1l0.9,0.1L162.6,41.3z M145.1,55.7c2,1.2,3.9,2.5,5.9,3.8h1.1
	c-13-9.1-27.6-15.4-43.4-18.7c-19.8-4.2-40.4-3.2-59.7,2.9c-0.2,0.1-0.4,0.1-0.6,0.2l-0.1,0c-7,2.2-13.8,5.1-20.3,8.6l0,0
	c-3.7,2-7.2,4.2-10.6,6.5v0.4h0.5c3.4-2.3,6.8-4.4,10.4-6.4c4.3-1.9,8.7-3.5,13.2-4.9c-0.8,1.1-1.3,2.3-1.5,3.6
	c-0.5,2.4-0.3,5,0.7,7.7h0.9c-1-2.7-1.3-5.2-0.8-7.6c0.3-1.3,0.8-2.8,2.1-4.2c6.3-1.9,12.8-3.2,19.4-4c-0.1,0.2-0.1,0.4-0.2,0.6
	c-0.4,2,0.1,4.2,1.4,6.4C56,53.1,48.7,56,41.6,59.5h1.5c6.7-3.2,13.6-5.9,20.7-8.1c1.7,2.7,4.7,5.4,8.6,8.1h1.5h1.3
	c6.2-3.9,12.4-7,18.5-9.4c2.4,1,4.9,1.8,7.3,2.5c-1.6,2.1-3.4,4.4-5.1,6.9H97l0.1-0.2c1.6-2.4,3.1-4.6,4.7-6.6
	c1.4,0.4,2.8,0.7,4.3,1c1.3,0.3,2.6,0.5,3.9,0.7c0.3,1.3,0.6,2.8,0.9,4.2l0.1,0.3l0.1,0.4h0.9c-0.2-1.1-0.5-2.1-0.8-3.2v0l0,0
	c-0.2-0.6-0.3-1.1-0.4-1.7c2.6,0.4,5.2,0.6,7.8,0.7c1.3,1.3,2.6,2.7,3.9,4.1h0.8c-1.2-1.4-2.5-2.8-3.8-4.1c2.4,0.1,4.8,0,7.1-0.3
	c2.3,1.4,4.6,2.8,6.9,4.3h1.2c-2.3-1.6-4.6-3.1-7-4.5c2.1-0.3,3.9-0.8,5.1-1.5c4.4,1.7,8.6,3.7,12.7,5.9h1.4
	c-4.4-2.4-8.8-4.5-13.4-6.4c0.6-0.5,1-1,1.1-1.5c0-0.2,0-0.4,0-0.6c2.6,0.9,5.2,2,7.7,3.3L145.1,55.7L145.1,55.7z M73.9,59.5
	c-4.3-2.7-7.5-5.6-9.3-8.3c7.2-2.1,14.5-3.6,22-4.5c2,1.2,4.1,2.2,6.3,3.1C86.2,52.4,79.9,55.7,73.9,59.5z M92.5,39.2
	C89.8,39.1,87,39,84.2,39c-0.4,0-0.7,0.1-1.1,0.2c7.4,1.1,16,3.5,21.9,5.4C101,42.2,96.4,40.2,92.5,39.2z M81.3,39.6
	c-1.6-0.2-3.2-0.3-4.6-0.4c-3.3,0.2-6.6,0.6-9.8,1.1c-1.4,0.3-2.6,1.6-3.4,2.8c5.9-0.7,11.9-0.9,17.8-0.8c-0.4-0.7-0.6-1.3-0.4-1.9
	C81,40.1,81.1,39.8,81.3,39.6z M48,44.7c-1.8,0.6-3.1,1.4-4.1,2.2c6.1-1.7,12.4-3,18.7-3.7c0.6-1,1.3-1.9,2.3-2.6
	C59.2,41.5,53.5,42.9,48,44.7z M64.2,50.6c-1.3-2.1-1.8-4.2-1.4-6c0.1-0.3,0.2-0.6,0.3-0.9c6.2-0.7,12.4-1,18.6-0.8
	c0.8,1,2.1,2.1,3.8,3.2C78.4,47.1,71.2,48.6,64.2,50.6L64.2,50.6z M103.3,45.3C96.5,44,89.6,43.2,82.7,43l0,0c0.9,1,2.3,2,4,3.1
	C92.2,45.4,97.8,45.2,103.3,45.3z M87.7,46.6C93.4,46,99.2,45.8,105,46c-3.8,0.9-7.6,2-11.3,3.4C91.6,48.6,89.6,47.7,87.7,46.6
	L87.7,46.6z M94.6,49.8c2.1,0.8,4.4,1.6,6.9,2.3c1.6-2,3.3-3.9,5.2-5.7C102.5,47.2,98.5,48.3,94.6,49.8z M106.2,53.2
	c-1.4-0.3-2.7-0.6-4-1c1.6-2,3.4-4,5.3-5.8c0.9,2.2,1.6,4.7,2.3,7.5C108.6,53.7,107.5,53.5,106.2,53.2z M112.3,46.5
	c7,1.6,13.8,3.7,20.4,6.3h0c0.7-0.4,1.2-0.9,1.3-1.4c0-0.3,0-0.5-0.2-0.8C125.8,47.9,118.3,47,112.3,46.5z M111.7,47
	c5.2,2.1,10.3,4.6,15.1,7.5v0c2.2-0.3,4-0.7,5.2-1.3C125.4,50.7,118.6,48.6,111.7,47z M118.9,54.8c-2.8-2.8-5.8-5.4-9-7.7
	c5.4,2.1,10.7,4.6,15.8,7.6C123.5,54.8,121.2,54.9,118.9,54.8L118.9,54.8z M108.3,46.7c0.9,2.4,1.7,4.8,2.3,7.3l0,0
	c2.4,0.4,4.9,0.6,7.3,0.7C115,51.8,111.7,49.1,108.3,46.7z M42.3,47.3c-2.4,0.7-4.7,1.5-7,2.3c2.7-1.2,5.5-2.4,8.3-3.4
	C43.1,46.5,42.7,46.9,42.3,47.3z M81.5,40.5c0-0.2,0.3-0.5,0.7-0.8c6.5,0.9,14.3,2.9,20.2,4.7c-6.7-1.2-13.5-1.9-20.2-2.2
	c-0.1-0.1-0.1-0.1-0.1-0.2C81.6,41.5,81.4,40.9,81.5,40.5L81.5,40.5z M104.7,40.7c0.8,1.2,1.7,3.1,2.2,4.2
	c-3.5-2.2-7.3-4.1-11.3-5.5C98.6,39.8,101.6,40.2,104.7,40.7z M111.6,42.1c-1-0.2-2-0.5-3-0.7c-1-0.2-2-0.4-3-0.6
	c0.8,1.4,1.6,2.9,2.2,4.4C108.9,44.2,110.2,43.1,111.6,42.1z M121,44.8c-4.1-0.3-8.3-0.1-12.4,0.5c0.9-0.8,2.5-2.2,3.8-3
	C115.3,43.1,118.2,43.9,121,44.8L121,44.8z M133,49.7c-0.5-0.4-1-0.7-1.6-1c-2.5-1.1-5.1-2.1-7.8-3c-3.8-0.6-8.5-0.6-13.1,0
	C116.6,46.2,124.4,46.9,133,49.7z M138.4,27.4c-1.1-1-1.8-2.3-2.2-3.7h0c-0.1-0.3-0.1-0.7-0.1-1c-0.1-2.1,0.4-3.7,1.2-5
	c2.1-3.4,6.1-4.1,7.3-4.2c2-0.1,4.9,0.5,5.3,0.9v1.3v1.6c0,0-2.7-2.1-6.7-1c-1.3,0.4-4.5,2.6-4.1,5.4c0.2,1.5,0.9,2.9,2,3.9
	c1.2,1,2.8,1.6,4.5,1.5c1.8,0,3.7-0.8,4.4-1.3l0,2.5V29C145.4,31.3,141,29.9,138.4,27.4z M123.7,28.8l2.1,0.1l0.8,0l1.6-12.3
	c0,0,2-0.1,2.9-0.1c0.7,0,1.6,0.6,1.8,1.5c0.1,0.3,0.1,0.6,0,0.9c-0.3,1.7-2,2.4-3.4,2.6c-0.7,0.1-1.4,0.2-2.1,0.1l1.7,2.6l3.2,4.8
	l0.9,0l2.7,0.1l-4.3-5.8c2.2-0.9,3.8-2.1,4.1-4.1c0.2-1.5-0.1-2.6-0.5-3.4c-1.2-2-4-1.8-4-1.8l-5.8,0.2l-0.7,4.9l-1,7.1L123.7,28.8z
	 M115.5,28.7c6.2-0.5,7.9-3.8,8.6-7.3c0.3-1.3,0.1-2.7-0.6-3.9c-0.9-1.8-2.9-3.1-5.9-3c-2.3,0.1-4.4,1-6,2.6
	c-0.4,0.4-0.7,0.8-1.1,1.2c-0.5,0.7-0.9,1.4-1.2,2.2c-0.1,0.3-0.2,0.6-0.2,0.9c-0.2,0.7-0.2,1.4-0.2,2.1c0,1.4,0.7,2.7,1.7,3.6
	C112,28.3,113.9,28.8,115.5,28.7L115.5,28.7z M111.7,20.9c0.7-2.6,2.7-4.3,5.8-4.4c1.9-0.1,3,0.9,3.5,2.1c0.4,1.1,0.5,2.3,0.2,3.5
	c-0.3,1.2-1.7,4-5.6,4.1c-1,0.1-1.9-0.2-2.8-0.7C111.7,24.7,111.1,23.2,111.7,20.9L111.7,20.9z M104.5,22.1h3.9l0.2-0.7l0.3-1.4
	h-3.8l0.8-3l4.2-0.2l0.1-0.5l0.3-1.4l-6.6,0.2l-2,7.3l-0.1,0.4l-1.3,4.7l1.6,0.1l0.8,0L104.5,22.1z M94.6,19.6l7,1.9l-1.8,0.4
	L96,22.9l-2.9,0.7l-1,0.3l1.7-1.4l1.1-0.9l-1.3-2.2l0.5,0.1L94.6,19.6z M90.2,25.3l-1.3,0.9l-0.4,0.3l-0.1-0.2l-0.8-1.6l-0.2-0.5
	l-0.1,0.4l-1.4,9.1l1.9-3.2l1.8-3.1l1.3-2.2l0.5-0.9L90.2,25.3z M90.9,19.1L88,21.3l1.7-0.3L90.9,19.1z M87.6,21.4L87.6,21.4
	l3.5-2.8l0,0c0.1,0,0.2,0,0.3,0.1l1.5,2.7c0,0.1,0,0.2,0,0.2l0,0l-3.7,2.8l0,0c-0.1,0-0.2,0-0.3-0.1l-1.3-2.7
	C87.6,21.5,87.6,21.5,87.6,21.4z M89.9,21.2l2.8,0.5l-3.3,2.5L89.9,21.2z M86,21.5l0.1,0.2l0.9,2.1l-3.9-1.3l-1.8-0.6l-0.8-0.3
	l1-0.3l6.7-1.7L86,21.5z M81.5,17.3l0.4-1.1l-1.9,0.1l-0.5,1.2L79,18.9l-1,2.5L77.3,23l-1.2,3l-0.3,0.7l0.8,0l0.8,0l4.1,0.2l0.3-0.7
	l0.4-1.1l-1.9-0.1l-1.5-0.1L81.5,17.3z M75.8,24.8l-0.4,1.1l-0.3,0.7l-3.9-0.2l-0.5,0l-0.9,0l0.4-0.8l2.8-6.3l0.7-1.6l0.6-1.2
	l4.9-0.2l-0.5,1.1l-0.2,0.4l-3.1,0.1l-1,2.4l1.4,0h1.3l-0.4,1.1l-0.2,0.4h-2.8l-1.3,2.9l1.5,0.1L75.8,24.8z M69.5,25.9l0.1-0.2
	l0.7-1.7c-1.5,0.8-2.5,0.8-3.1,0.6c-0.5-0.2-0.9-0.6-1-1.2c-0.2-0.7,0.2-1.9,1.1-3.1c0.3-0.4,0.7-0.8,1-1.1c0,0,0,0,0,0l0,0
	c0,0,0,0,0,0c0,0,0.1-0.1,0.1-0.1l0,0v0h0c0.1-0.1,0.1-0.1,0.2-0.2c0.2-0.1,0.4-0.3,0.6-0.4c2.2-1.3,3.5,0.3,3.5,0.3l0.6-1.2
	l0.2-0.5c-0.4-0.7-3.5-1.5-6.2,1c-0.3,0.3-0.6,0.6-0.8,0.9c-1,1.2-1.8,2.8-2.1,4c-0.1,0.4-0.1,0.7-0.1,1.1c0.2,1.1,0.7,1.7,1.3,2.1
	C67.2,27,69.5,25.9,69.5,25.9L69.5,25.9z M61.9,22.6c2.6-0.4,3.4-2.4,3.6-3.2c0.2-0.5,0.2-1,0.1-1.4c-0.3-1.2-1.9-1.2-1.9-1.2
	l-2.7,0.1L58,23.1l-1.4,2.7l0.8,0l0.5,0h0.2l2.2-4.4l0.4,1.9l0.5,2.7l0.7,0l1.1,0L61.9,22.6z M61.7,21.3c-0.5,0.1-0.9,0.1-1.4,0.1
	l1.6-3.2l1.3-0.1c0.7,0.1,0.9,0.5,0.8,1C63.8,20.3,62.9,21.2,61.7,21.3L61.7,21.3z M58.3,17.1L58.1,18l-1.7,7.8l-0.5,0l-1,0l0.3-1.5
	l0.2-0.9l-2.4-0.1l-1.8,2.3h-0.2l-1.4,0l1.7-2.1l0.1-0.1l3.1-3.8l1.9-2.3L58.3,17.1z M54.1,22l1.7,0l0.8-3.1L54.1,22z M48.6,22.5
	c0,0,1.4,0.1,2.3-0.2c0.9-0.3,2.1-1.2,2.6-2.1c0.2-0.3,0.6-1.2,0.3-2c-0.3-1-1.3-0.9-1.3-0.9l-2.3,0.1l-4.6,7.9l1.3,0.1H47
	L48.6,22.5z M49.3,21.4L49.3,21.4c0.5,0,0.9,0,1.3-0.1c0,0,0,0,0,0l0,0l0,0c0,0,0,0,0.1,0c0.9-0.3,1.6-1.1,1.9-2
	c0.2-0.8-0.6-0.9-0.6-0.9l-1,0L49.3,21.4L49.3,21.4L49.3,21.4z"/>
</svg>
