<?xml version="1.0" encoding="utf-8"?>
<!-- Generator: Adobe Illustrator 26.5.0, SVG Export Plug-In . SVG Version: 6.00 Build 0)  -->
<svg version="1.1" id="Layer_1" xmlns="http://www.w3.org/2000/svg" xmlns:xlink="http://www.w3.org/1999/xlink" x="0px" y="0px"
	 viewBox="0 0 180 60" style="enable-background:new 0 0 180 60;" xml:space="preserve">
<style type="text/css">
	.st0{fill:#9ACB00;}
	.st1{fill-rule:evenodd;clip-rule:evenodd;fill:#FFFFFF;}
	.st2{fill-rule:evenodd;clip-rule:evenodd;fill:#032B70;}
</style>
<path class="st0" d="M5,0h170c2.8,0,5,2.2,5,5v50c0,2.8-2.2,5-5,5H5c-2.8,0-5-2.2-5-5V5C0,2.2,2.2,0,5,0z"/>
<path class="st1" d="M42.8,35c1.6,1.6,3.6,2.4,5.8,2.5c2.3,0,4.2-0.8,5.8-2.4c1.6-1.6,2.4-3.6,2.4-5.8c0-1.1-0.2-2.2-0.6-3.2
	c-0.4-1-1-1.9-1.8-2.7c-0.8-0.8-1.7-1.4-2.7-1.8c-1-0.4-2.1-0.6-3.2-0.6c-2.2,0.1-4,0.8-5.6,2.4c-1.8,1.8-2.6,3.9-2.5,6.5
	C40.6,31.8,41.4,33.6,42.8,35z M51.2,33.1c-0.8,0.5-1.7,0.8-2.6,0.8c-1.2,0-2.4-0.5-3.2-1.4c-0.9-0.9-1.3-2-1.3-3.3
	c0-0.9,0.3-1.8,0.8-2.6c0.5-0.8,1.2-1.4,2.1-1.7c0.8-0.3,1.8-0.4,2.7-0.3c0.9,0.2,1.7,0.6,2.4,1.3c0.6,0.7,1.1,1.5,1.3,2.4
	c0.2,0.9,0.1,1.8-0.3,2.7C52.6,31.9,52,32.6,51.2,33.1z M101.4,32.6l8.5-4.3c0,0.1,0,0.1,0,0.2c0,0.1,0,0.1,0,0.2v0.9
	c0,1-0.2,1.9-0.6,2.8c-0.4,0.9-0.9,1.7-1.6,2.4c-0.7,0.7-1.5,1.2-2.4,1.6c-0.9,0.4-1.9,0.6-2.8,0.6h-0.4l-2.1,2.1L98,37.1h-3.8V21.4
	h8.3c1.4,0,2.8,0.4,4,1.2c1.2,0.8,2.1,1.8,2.7,3.1l-7.8,3.9l-4.1-2v3.1L101.4,32.6z M82.1,21.4c-0.1,0-0.1,0.1-0.1,0.1c0,0,0,0,0,0
	v15.3c0,0.1,0,0.1,0.1,0.1h8.3c0.1,0,0.1,0,0.1-0.1v-3.2c0-0.1,0-0.2-0.2-0.2H86c0-0.1,0-0.1,0-0.2V21.6l0,0c0-0.1,0-0.2-0.1-0.2
	H82.1z M37.7,31.4C37.7,31.4,37.7,31.4,37.7,31.4l0,5.6c0,0.1,0,0.1,0,0.1h-3.9c-0.1,0-0.1-0.1-0.1-0.1v0v-5.1
	c0-0.3-0.1-0.6-0.2-0.8c-0.4-0.9-0.8-1.8-1.3-2.7l0,0c-0.6-1.2-1.1-2.5-1.7-3.7L29,21.6l0,0c0,0,0-0.1,0-0.1h4.2
	c0.1,0,0.2,0,0.2,0.1c0.7,2,1.5,3.9,2.2,5.9c0,0.1,0,0.1,0.1,0.2c0-0.1,0.1-0.2,0.1-0.3l0,0l0,0c0.1-0.1,0.1-0.3,0.2-0.4
	c0.3-0.9,0.7-1.8,1-2.7c0.3-0.9,0.7-1.8,1-2.7c0,0,0-0.1,0-0.1c0,0,0.1,0,0.1,0h4.1c0,0,0,0,0.1,0c-0.1,0.1-0.1,0.3-0.2,0.4l0,0v0
	C42,22,42,22.1,41.9,22.2L37.8,31L37.7,31.4z M80.7,30.9C80.7,30.9,80.7,30.9,80.7,30.9l0-3.5c0,0-0.1,0-0.1,0l0,0H76c0,0,0,0,0,0
	c0-0.1,0-0.6,0-1.1v0c0-0.5,0-0.9,0-1.2v0c0,0,0.1,0,0.1,0h0h4.6c0.1,0,0.1,0,0.1-0.1c0-0.4,0-0.7,0-1.1v0v0c0-0.7,0-1.4,0-2.1
	c0-0.1,0-0.2-0.2-0.2h-8.5c-0.1,0-0.2,0-0.1,0.1v15.3c0,0.1,0,0.2,0.1,0.2h8.6c0.1,0,0.1,0,0.1-0.1c0-0.4,0-0.7,0-1.1v0
	c0-0.7,0-1.4,0-2.1c0-0.1,0-0.2-0.2-0.2h-4.7v-2.6c0,0,0,0,0-0.1c0,0,0,0,0,0L80.7,30.9z M57.6,21.5C57.6,21.5,57.6,21.5,57.6,21.5
	l6-0.1c1.3,0,2.5,0.2,3.7,0.8c0.8,0.4,1.5,0.9,2.1,1.6c0.8,0.9,1.4,2.1,1.6,3.3c0.1,0.4,0.1,0.7,0.2,1.1c0,0.5,0.1,0.9,0,1.4
	c-0.1,1.3-0.3,2.6-0.9,3.8c-0.8,1.5-2,2.5-3.7,3.1c-0.7,0.2-1.5,0.4-2.2,0.5c-0.4,0-0.7,0.1-1.1,0.1h-5.6v0c0,0,0-0.1,0-0.1
	L57.6,21.5C57.6,21.6,57.6,21.5,57.6,21.5z M67.1,29.5v-0.4l0-0.1c0-0.6-0.1-1.1-0.3-1.7c-0.2-0.6-0.5-1.2-1-1.6
	c-0.6-0.5-1.4-0.7-2.1-0.8c0,0,0,0,0,0c0,0-0.1,0-0.1,0h-0.1h-1.8c0,0,0,0,0,0c0,0,0,0,0,0v8.3c0,0,0,0.1,0,0.1c0,0,0,0,0,0v0.1
	c0,0,0,0,0,0h1.8c0,0,0,0,0.1,0c0,0,0.1,0,0.1,0c0.3,0,0.5,0,0.8-0.1c1.1-0.2,1.9-0.9,2.4-2C67,30.8,67.1,30.2,67.1,29.5z"/>
<path class="st2" d="M112.9,25.3c0.3,0.3,0.6,0.4,1,0.4c0.4,0,0.7-0.2,1-0.4c0.3-0.3,0.4-0.6,0.4-1s-0.2-0.7-0.4-1
	c-0.3-0.3-0.6-0.4-1-0.4c-0.4,0-0.7,0.2-1,0.4s-0.4,0.6-0.4,1S112.6,25,112.9,25.3z M112.7,27.4v9.2h2.4v-9.2H112.7z M101.4,25.5
	l-4.1,2l4.1,2l4.1-2L101.4,25.5z M120.6,30.5v6h-2.4v-9.2h2.4v1.5c0.9-1.1,1.8-1.7,3.3-1.7v2.4C122.4,29.5,121.2,29.7,120.6,30.5z
	 M127.6,32.7h6.4c0.1-0.4,0.1-0.7,0.1-1.1c0-2.4-1.4-4.4-4.2-4.4c-3,0-4.6,2.3-4.6,4.8c0,2.6,1.6,4.7,5,4.7c0.9,0,2.1-0.2,3.2-0.5
	l-0.3-1.9c-0.9,0.3-1.9,0.5-2.7,0.5C128.5,34.8,127.8,34,127.6,32.7z M129.7,29.2c1.2,0,1.9,0.8,2.1,2.1h-4.2
	C127.8,29.9,128.5,29.2,129.7,29.2z M141,36.7c-3.2,0-5.2-2.1-5.2-4.7s1.9-4.8,5.2-4.8c1.1,0,2.2,0.4,3.1,0.9l-0.8,1.7
	c-0.7-0.4-1.5-0.6-2.3-0.6c-1.5,0-2.7,0.9-2.7,2.8c0,1.7,1.3,2.7,2.8,2.7c0.8,0,1.6-0.2,2.3-0.6l0.7,1.7
	C143.1,36.4,142.1,36.7,141,36.7z M149.2,33.6v-4.2l2.6,0v-2h-2.6v-3.1l-2.4,1.5v1.5l-1.7,1.7v0.3h1.7v4.1c0,2.4,1.1,3.3,2.8,3.3
	c0.7,0,1.3-0.1,2-0.3l-0.4-1.9c-0.3,0.1-0.5,0.1-0.8,0.1C149.6,34.7,149.2,34.4,149.2,33.6z"/>
</svg>
