<?xml version="1.0" encoding="utf-8"?>
<!-- Generator: Adobe Illustrator 26.5.0, SVG Export Plug-In . SVG Version: 6.00 Build 0)  -->
<svg version="1.1" id="Layer_1" xmlns="http://www.w3.org/2000/svg" xmlns:xlink="http://www.w3.org/1999/xlink" x="0px" y="0px"
	 viewBox="0 0 180 60" style="enable-background:new 0 0 180 60;" xml:space="preserve">
<style type="text/css">
	.st0{fill:#513628;}
	.st1{fill-rule:evenodd;clip-rule:evenodd;fill:#513628;}
	.st2{fill-rule:evenodd;clip-rule:evenodd;fill:#FDBD10;}
</style>
<path class="st0" d="M5,0h170c2.8,0,5,2.2,5,5v50c0,2.8-2.2,5-5,5H5c-2.8,0-5-2.2-5-5V5C0,2.2,2.2,0,5,0z"/>
<path class="st1" d="M137.3,45.6c0.3-0.1,7.5-3.3,9.8-5.1c2.4-2,3.6-4.8,3.6-8.1V16.5l-0.2-0.1c-5.8-3.1-12.9-2.9-13.2-2.9
	c-0.3,0-7.4-0.2-13.2,2.9l-0.2,0.1v15.8c0,3.4,1.3,6.2,3.6,8.1C129.7,42.3,137,45.4,137.3,45.6"/>
<path class="st2" d="M137.3,45.9c0,0-7.6-3.3-10-5.3c-2.5-2-3.7-4.9-3.7-8.2V16c6-3.3,13.7-3,13.7-3s7.6-0.3,13.7,3v16.3
	c0,3.3-1.2,6.2-3.7,8.2C144.9,42.5,137.3,45.9,137.3,45.9z M124.7,32.3c0,3.1,1.1,5.6,3.3,7.4c1.9,1.6,7.7,4.2,9.3,4.9
	c1.6-0.7,7.4-3.3,9.3-4.9c2.1-1.8,3.3-4.3,3.3-7.4V16.3c-8.1-0.8-17.6-0.3-25.1,6.7L124.7,32.3L124.7,32.3z M146.5,31.9
	c0-0.8-0.4-1.2-1.5-1.8c-2-1.2-2.3-2.1-2.3-3.4c0-2,1.7-3.1,3.2-3.2c1.3,0,2.2,0.5,2.6,0.8v2.1c-0.5-0.5-1.3-1-2.2-1
	c-0.7,0-1.4,0.3-1.4,1.2c0,0.8,0.6,1.2,1.4,1.7l0,0c0.1,0,0.1,0.1,0.2,0.1c2,1.2,2.4,2.3,2.4,3.7c0,1.5-1.1,3.2-3.5,3.2
	c-1,0-1.9-0.3-2.7-0.8v-2.2c0.6,0.5,1.5,1,2.3,1C145.9,33.3,146.5,32.7,146.5,31.9z M136.8,35.1c0.2,0.1,0.6,0.1,1.1,0.1
	c2.7,0,4.2-2.4,4.2-6c0-3.5-1.6-5.7-4.5-5.7c-1.3,0-2.4,0.3-3.2,0.9v15.8h2.4V35.1z M137.6,25.5c-0.3,0-0.7,0.1-0.9,0.2v7.5
	c0.2,0.1,0.5,0.1,0.8,0.1c1.4,0,2.1-1.3,2.1-3.9C139.6,26.6,139,25.5,137.6,25.5z M133.1,34.3c-0.9,0.6-2.2,1-3.6,1
	c-2.4,0-3.6-1.3-3.6-3.9v-7.6h2.4v7.8c0,0.7,0.2,1.7,1.3,1.7c0.5,0,0.9-0.1,1.1-0.3v-9.2h2.4V34.3z M145.7,46.2v-1.6h0.4
	c0.4,0,0.5,0.2,0.5,0.5s-0.1,0.4-0.4,0.4c0,0.1,0.5,0.7,0.5,0.7h-0.3c0,0-0.4-0.6-0.4-0.7h0v0.7H145.7z M146.4,45.1
	c0-0.1,0-0.2-0.3-0.2v0H146v0.5h0C146.3,45.4,146.4,45.3,146.4,45.1z M146.1,44.2c-0.7,0-1.3,0.6-1.3,1.3c0,0.7,0.6,1.3,1.3,1.3
	c0.7,0,1.3-0.6,1.3-1.3C147.4,44.7,146.8,44.2,146.1,44.2z M147.2,45.5c0,0.6-0.5,1.1-1.1,1.1s-1.1-0.5-1.1-1.1
	c0-0.6,0.5-1.1,1.1-1.1S147.2,44.9,147.2,45.5z"/>
<path class="st2" d="M61.2,33.7v-0.4l1.2-0.2V22.9l-1.3-0.2v-0.5l2.1-0.3l0.1,0.1v4.3h0.1c0.8-0.5,1.8-0.9,2.8-0.9
	c1.5,0,2.2,0.6,2.2,2.1v5.5l1.2,0.2v0.4h-3.4v-0.4l1.2-0.2v-5.2c0-1.2-0.5-1.6-1.8-1.6c-0.8,0-1.6,0.3-2.4,0.6v6.2l1.2,0.2v0.4H61.2
	z M53.7,33.3c0.7,0.3,1.8,0.6,3,0.6c2.6,0,3.7-1.4,3.7-3.1c0-1.8-1.1-2.5-2.7-3.1l-1-0.4c-1.4-0.5-1.9-1.1-1.9-2.2
	c0-1.2,0.8-1.8,2.3-1.8c1,0,1.6,0.3,1.9,0.4l0.3,1.5h0.5L59.8,23c-0.6-0.2-1.4-0.4-2.6-0.4c-2.3,0-3.3,1.3-3.3,2.8
	c0,1.6,0.9,2.4,2.4,2.9l1,0.4c1.5,0.6,2.2,1.1,2.2,2.4c0,1.2-0.8,2.1-2.6,2.1c-1,0-1.7-0.2-2.3-0.5L54.2,31h-0.6L53.7,33.3z
	 M30,23.5l2.7,10.2h0.9l2.6-9h0l2.5,9h0.9l2.7-10.2l1-0.2v-0.5h-3.1v0.5l1.3,0.2L39.2,32h0l-2.6-9.2h-0.7L33.3,32h-0.1L31,23.5
	l1.3-0.2v-0.5H29v0.5L30,23.5z M42.7,29.7c0,2.4,1,4.2,3.8,4.2c1.3,0,2.1-0.4,2.6-0.7v-0.5c-0.6,0.2-1.2,0.5-2.4,0.5
	c-2,0-2.9-1.3-2.9-3.6h5.7c0-2.5-1-4-3.2-4C44.2,25.5,42.7,27,42.7,29.7z M43.8,29l4.5-0.1c0-1.8-0.8-2.7-2.1-2.7
	C44.7,26.2,43.9,27.2,43.8,29z M70.2,33.3v0.4h3.5v-0.4l-1.2-0.2v-7.5l-0.1-0.1l-2.2,0.3v0.5l1.3,0.2v6.6L70.2,33.3z M71.8,23.9
	c-0.4,0-0.7-0.3-0.7-0.7c0-0.4,0.3-0.7,0.7-0.7c0.4,0,0.7,0.3,0.7,0.7C72.5,23.6,72.2,23.9,71.8,23.9z M74.1,36.4v0.4h3.6v-0.4
	l-1.4-0.2v-2.6c0.5,0.2,1,0.3,1.9,0.3c2.3,0,3.9-1.4,3.9-4.5c0-3.1-1.6-3.9-3.2-3.9c-1.1,0-1.9,0.4-2.6,0.9h-0.1v-0.8l-0.1-0.1
	L74,25.9v0.5l1.2,0.2v9.8L74.1,36.4z M78.3,33.3c1.6,0,2.7-0.9,2.7-3.6c0-2.5-1-3.3-2.6-3.3c-0.9,0-1.6,0.3-2.2,0.6v5.7
	C76.7,33,77.2,33.3,78.3,33.3z M86.6,23.5l2.7,10.2h0.9l2.6-9h0l2.5,9h0.9l2.7-10.2l1-0.2v-0.5h-3.1v0.5l1.3,0.2L95.9,32h0l-2.6-9.2
	h-0.7L89.9,32h-0.1l-2.2-8.5l1.3-0.2v-0.5h-3.3v0.5L86.6,23.5z M100,33.7v-0.4l1.2-0.2v-6.6l-1.3-0.2v-0.5l2.2-0.3l0.1,0.1v7.5
	l1.2,0.2v0.4H100z M101,23.3c0,0.3,0.3,0.7,0.7,0.7c0.4,0,0.7-0.3,0.7-0.7c0-0.4-0.3-0.7-0.7-0.7C101.3,22.6,101,22.9,101,23.3z
	 M106.8,33.9c-1.2,0-1.9-0.5-1.9-1.9v-5.6h-1.2v-0.4l1.2-0.3l0.2-1.9h0.8v1.9h2.2v0.7h-2.2v5.4c0,1,0.3,1.4,1.3,1.4
	c0.4,0,0.7-0.1,1.1-0.2v0.5C107.9,33.7,107.4,33.9,106.8,33.9z M108.8,33.3v0.4h3.4v-0.4l-1.2-0.2V27c0.7-0.3,1.5-0.6,2.4-0.6
	c1.2,0,1.8,0.4,1.8,1.6v5.2l-1.2,0.2v0.4h3.4v-0.4l-1.2-0.2v-5.5c0-1.5-0.8-2.1-2.2-2.1c-1,0-2,0.4-2.8,0.9H111v-4.3l-0.1-0.1
	l-2.1,0.3v0.5l1.3,0.2v10.2L108.8,33.3z"/>
</svg>
