<?xml version="1.0" encoding="utf-8"?>
<!-- Generator: Adobe Illustrator 26.5.0, SVG Export Plug-In . SVG Version: 6.00 Build 0)  -->
<svg version="1.1" id="Layer_1" xmlns="http://www.w3.org/2000/svg" xmlns:xlink="http://www.w3.org/1999/xlink" x="0px" y="0px"
	 viewBox="0 0 180 60" style="enable-background:new 0 0 180 60;" xml:space="preserve">
<style type="text/css">
	.st0{fill:#4D148C;}
	.st1{fill-rule:evenodd;clip-rule:evenodd;fill:#FF6600;}
	.st2{fill-rule:evenodd;clip-rule:evenodd;fill:#FFFFFF;}
</style>
<path class="st0" d="M5,0h170c2.8,0,5,2.2,5,5v50c0,2.8-2.2,5-5,5H5c-2.8,0-5-2.2-5-5V5C0,2.2,2.2,0,5,0z"/>
<path class="st1" d="M141,37.6c1.9,0,3.5,1.6,3.4,3.5c0,1.9-1.6,3.4-3.5,3.4c-1.9,0-3.5-1.5-3.5-3.4c0-0.9,0.4-1.8,1-2.4
	C139.1,37.9,140,37.6,141,37.6L141,37.6z M141,38.1c-1.2,0-2.3,0.6-2.8,1.7c-0.5,1.1-0.3,2.3,0.6,3.2c0.8,0.8,2.1,1.1,3.2,0.7
	c1.1-0.4,1.8-1.5,1.8-2.7c0-0.8-0.3-1.5-0.8-2C142.5,38.4,141.7,38.1,141,38.1L141,38.1z M117.4,25.5l4.1,4.4l3.9-4.4h8.4l-8.2,9.1
	l8.3,9.2h-8.8l-4.1-4.5l-4,4.5h-8.5l8.3-9.2l-8.3-9.1H117.4z M108.7,15v6.4h-9.4v4.1h9.4v6.2h-9.4v5.7h9.4v6.4H92.4V15H108.7z
	 M141.2,38.9c0.9,0,1.3,0.4,1.3,1.1c0,0.4-0.3,0.8-0.7,0.9l0,0c0.4,0.1,0.5,0.4,0.6,0.9c0,0.4,0.1,0.8,0.3,1.2h-0.7
	c-0.1-0.5-0.2-0.9-0.3-1.4c-0.1-0.3-0.4-0.5-0.7-0.5h-0.6V43h-0.6v-4.2L141.2,38.9z M141,39.4h-0.8v1.2h0.8c0.6,0,0.8-0.3,0.8-0.6
	C141.8,39.7,141.6,39.4,141,39.4L141,39.4z"/>
<path class="st2" d="M81.4,39.1c-2.5,0-4.1-2.3-4.1-4.7c0-2.6,1.4-5,4.1-5s4,2.4,4,5C85.4,36.8,84.2,39.1,81.4,39.1z M57.1,31.6
	c0.3-1.7,1.9-3,3.7-3c1.8-0.1,3.5,1.2,3.7,3L57.1,31.6z M85.6,15v11.6h-0.1c-1.4-1.6-3.5-2.4-5.6-2.3c-4.5,0-7.9,3-9.1,6.9
	c-1.4-4.3-4.9-7-10.1-7c-4.2,0-7.5,1.8-9.3,4.8v-3.7h-8.7v-4h9.5V15H35v28.4h7.8V31.5h7.8c-0.2,0.9-0.4,1.9-0.4,2.8
	c0,5.9,4.7,10.1,10.6,10.1c5,0,8.3-2.3,10-6.4h-6.7c-0.9,1.3-1.6,1.6-3.4,1.6c-2.2-0.1-3.9-1.8-3.9-3.9h13.6
	c0.6,4.7,4.4,8.8,9.5,8.8c2.2,0,4.3-1.1,5.5-2.9h0.1v1.8h6.8V15H85.6z"/>
</svg>
