<?xml version="1.0" encoding="utf-8"?>
<!-- Generator: Adobe Illustrator 26.5.0, SVG Export Plug-In . SVG Version: 6.00 Build 0)  -->
<svg version="1.1" id="Layer_1" xmlns="http://www.w3.org/2000/svg" xmlns:xlink="http://www.w3.org/1999/xlink" x="0px" y="0px"
	 viewBox="0 0 180 60" style="enable-background:new 0 0 180 60;" xml:space="preserve">
<style type="text/css">
	.st0{fill:#F26722;}
	.st1{fill-rule:evenodd;clip-rule:evenodd;fill:#FFFFFF;}
	.st2{fill:#FFFFFF;}
	.st3{fill-rule:evenodd;clip-rule:evenodd;fill:#4D148C;}
</style>
<path class="st0" d="M5,0h170c2.8,0,5,2.2,5,5v50c0,2.8-2.2,5-5,5H5c-2.8,0-5-2.2-5-5V5C0,2.2,2.2,0,5,0z"/>
<path class="st1" d="M70.8,19c-4.4,0-8.2,2.5-10.1,6.2C58.8,21.5,55,19,50.6,19s-8.2,2.5-10.1,6.2c-1.9-3.7-5.7-6.2-10.1-6.2
	C24.1,19,19,24.1,19,30.4c0,6.3,5.1,11.4,11.4,11.4c4.4,0,8.2-2.5,10.1-6.2c1.9,3.7,5.7,6.2,10.1,6.2s8.2-2.5,10.1-6.2
	c1.9,3.7,5.7,6.2,10.1,6.2c6.3,0,11.4-5.1,11.4-11.4C82.2,24.1,77.1,19,70.8,19z M30.4,39.3c-4.9,0-8.8-4-8.8-8.9
	c0-4.9,4-8.9,8.8-8.9s8.8,4,8.8,8.9C39.2,35.3,35.3,39.3,30.4,39.3z M41.8,30.4c0,4.9,4,8.9,8.8,8.9s8.8-4,8.8-8.9
	c0-4.9-4-8.9-8.8-8.9S41.8,25.5,41.8,30.4z M70.8,39.3c-4.9,0-8.8-4-8.8-8.9c0-4.9,4-8.9,8.8-8.9s8.8,4,8.8,8.9
	C79.7,35.3,75.7,39.3,70.8,39.3z M55.7,25.1c0-0.2-0.1-0.3-0.3-0.3c0,0-0.1,0-0.3,0h0h0c-0.6,0-2,0-2,0c-0.2,0-0.3,0.1-0.3,0.3v5.4
	c0,0-0.1-0.3-0.3-0.5c-0.2-0.2-3.8-5-3.8-5c-0.1-0.1-0.2-0.2-0.3-0.2h-2c-0.2,0-0.3,0.1-0.3,0.3v9.6c0,0.2,0.1,0.3,0.3,0.3h2.3
	c0.2,0,0.3-0.1,0.3-0.3v-5.4c0,0,0.1,0.3,0.2,0.5c0.1,0.1,3.8,5,3.8,5c0.1,0.1,0.2,0.2,0.3,0.2h2c0.2,0,0.3-0.1,0.3-0.3V25.1z
	 M75.5,25.1c0-0.2-0.1-0.3-0.3-0.3h-8.6c-0.2,0-0.3,0.1-0.3,0.3v2c0,0.2,0.1,0.3,0.3,0.3h2.3c0.2,0,0.4,0,0.4,0v7.8
	c0,0.2,0.1,0.3,0.3,0.3h2.4c0.2,0,0.3-0.1,0.3-0.3v-7.8c0,0,0.3,0,0.6,0h2.2c0.2,0,0.3-0.1,0.3-0.3V25.1z M34.6,25.3
	c0.2,0,0.3,0.1,0.3,0.3v2c0,0.2-0.1,0.3-0.3,0.3h-2.2c-0.3,0-0.6,0-0.6,0v7.8c0,0.2-0.1,0.3-0.3,0.3h-2.4c-0.2,0-0.3-0.1-0.3-0.3
	v-7.8c0,0-0.2,0-0.4,0h-2.3c-0.2,0-0.3-0.1-0.3-0.3v-2c0-0.2,0.1-0.3,0.3-0.3H34.6z"/>
<path class="st2" d="M89.5,20.6l0.8,3.5l1-3.5h0.6l1,3.5l0.8-3.5h0.6L93.3,25h-0.6l-1-3.6l-1,3.6H90l-1.1-4.4H89.5z"/>
<path class="st2" d="M94.9,21.8h0.5V25h-0.5V21.8z M94.9,20.6h0.5v0.6h-0.5V20.6z"/>
<path class="st2" d="M96.2,20.6h0.5V25h-0.5V20.6z"/>
<path class="st2" d="M97.6,20.6h0.5V25h-0.5V20.6z"/>
<path class="st2" d="M102.3,22.5c0.2,0,0.4,0,0.6-0.1c0.2-0.1,0.3-0.3,0.3-0.6c0-0.3-0.1-0.5-0.3-0.6c-0.1-0.1-0.3-0.1-0.6-0.1h-1.1
	v1.4H102.3z M102.5,24.5c0.4,0,0.6-0.1,0.8-0.3c0.1-0.1,0.1-0.3,0.1-0.5c0-0.3-0.1-0.5-0.4-0.6c-0.2-0.1-0.3-0.1-0.6-0.1h-1.2v1.5
	H102.5z M100.7,20.6h1.9c0.5,0,0.9,0.2,1.1,0.5c0.1,0.2,0.2,0.4,0.2,0.6c0,0.3-0.1,0.5-0.2,0.7c-0.1,0.1-0.2,0.2-0.3,0.3
	c0.2,0.1,0.4,0.2,0.5,0.3c0.2,0.2,0.3,0.5,0.3,0.8c0,0.3-0.1,0.5-0.3,0.8c-0.3,0.3-0.7,0.5-1.3,0.5h-1.8V20.6z"/>
<path class="st2" d="M106,21.7c0.2,0,0.4,0.1,0.7,0.2c0.2,0.1,0.4,0.2,0.5,0.4c0.1,0.2,0.2,0.3,0.2,0.6c0,0.1,0,0.4,0,0.7h-2.3
	c0,0.3,0.1,0.6,0.2,0.8c0.1,0.2,0.4,0.3,0.7,0.3c0.3,0,0.5-0.1,0.7-0.3c0.1-0.1,0.2-0.2,0.2-0.4h0.5c0,0.1-0.1,0.2-0.1,0.4
	c-0.1,0.1-0.2,0.3-0.3,0.4c-0.2,0.2-0.4,0.3-0.6,0.3c-0.1,0-0.3,0-0.4,0c-0.4,0-0.7-0.1-1-0.4c-0.3-0.3-0.4-0.7-0.4-1.2
	c0-0.5,0.1-0.9,0.4-1.2C105.2,21.9,105.6,21.7,106,21.7z M106.9,23.2c0-0.2-0.1-0.4-0.2-0.6c-0.1-0.3-0.4-0.4-0.7-0.4
	c-0.2,0-0.5,0.1-0.6,0.3c-0.2,0.2-0.3,0.4-0.3,0.7H106.9z"/>
<path class="st2" d="M109.3,21.7c0.4,0,0.6,0.1,0.9,0.3c0.2,0.2,0.4,0.5,0.4,0.9h-0.5c0-0.2-0.1-0.4-0.2-0.5
	c-0.1-0.1-0.3-0.2-0.5-0.2c-0.3,0-0.6,0.2-0.7,0.5c-0.1,0.2-0.1,0.5-0.1,0.8c0,0.3,0.1,0.6,0.2,0.8c0.1,0.2,0.3,0.3,0.6,0.3
	c0.2,0,0.4-0.1,0.5-0.2c0.1-0.1,0.2-0.3,0.3-0.6h0.5c-0.1,0.4-0.2,0.7-0.4,0.9c-0.2,0.2-0.5,0.3-0.9,0.3c-0.4,0-0.7-0.2-1-0.5
	c-0.2-0.3-0.4-0.7-0.4-1.1c0-0.6,0.1-1,0.4-1.3C108.5,21.9,108.9,21.7,109.3,21.7z"/>
<path class="st2" d="M112.4,24.7c0.4,0,0.6-0.1,0.7-0.4c0.1-0.3,0.2-0.6,0.2-0.9c0-0.3,0-0.5-0.1-0.7c-0.2-0.3-0.4-0.4-0.8-0.4
	c-0.3,0-0.6,0.1-0.7,0.4c-0.1,0.2-0.2,0.6-0.2,0.9c0,0.3,0.1,0.6,0.2,0.8C111.8,24.5,112.1,24.7,112.4,24.7z M112.4,21.7
	c0.4,0,0.8,0.1,1,0.4c0.3,0.3,0.4,0.7,0.4,1.2c0,0.5-0.1,0.9-0.4,1.3c-0.2,0.3-0.6,0.5-1.2,0.5c-0.4,0-0.8-0.1-1-0.4
	c-0.3-0.3-0.4-0.7-0.4-1.2c0-0.5,0.1-1,0.4-1.3C111.6,21.9,111.9,21.7,112.4,21.7z"/>
<path class="st2" d="M114.5,21.8h0.5v0.5c0.1-0.2,0.2-0.3,0.3-0.3c0.2-0.1,0.4-0.2,0.6-0.2c0.3,0,0.5,0.1,0.6,0.2
	c0.1,0.1,0.2,0.2,0.2,0.3c0.1-0.2,0.3-0.3,0.4-0.4c0.2-0.1,0.3-0.1,0.5-0.1c0.4,0,0.7,0.2,0.9,0.5c0.1,0.2,0.1,0.4,0.1,0.7V25h-0.6
	v-2.2c0-0.2-0.1-0.4-0.2-0.4c-0.1-0.1-0.2-0.1-0.4-0.1c-0.2,0-0.4,0.1-0.5,0.2c-0.2,0.1-0.2,0.4-0.2,0.7V25h-0.5v-2.1
	c0-0.2,0-0.4-0.1-0.5c-0.1-0.1-0.2-0.2-0.5-0.2c-0.2,0-0.4,0.1-0.6,0.2c-0.2,0.2-0.2,0.4-0.2,0.8V25h-0.5V21.8z"/>
<path class="st2" d="M120.9,21.7c0.2,0,0.4,0.1,0.7,0.2c0.2,0.1,0.4,0.2,0.5,0.4c0.1,0.2,0.2,0.3,0.2,0.6c0,0.1,0,0.4,0,0.7H120
	c0,0.3,0.1,0.6,0.2,0.8c0.1,0.2,0.4,0.3,0.7,0.3c0.3,0,0.5-0.1,0.7-0.3c0.1-0.1,0.2-0.2,0.2-0.4h0.5c0,0.1-0.1,0.2-0.1,0.4
	c-0.1,0.1-0.2,0.3-0.3,0.4c-0.2,0.2-0.4,0.3-0.6,0.3c-0.1,0-0.3,0-0.4,0c-0.4,0-0.7-0.1-1-0.4c-0.3-0.3-0.4-0.7-0.4-1.2
	c0-0.5,0.1-0.9,0.4-1.2C120.1,21.9,120.4,21.7,120.9,21.7z M121.7,23.2c0-0.2-0.1-0.4-0.2-0.6c-0.1-0.3-0.4-0.4-0.7-0.4
	c-0.2,0-0.5,0.1-0.6,0.3c-0.2,0.2-0.3,0.4-0.3,0.7H121.7z"/>
<path class="st3" d="M127.4,36.5c0.7,0,1.2,0.6,1.2,1.2s-0.6,1.2-1.3,1.2c-0.7,0-1.2-0.6-1.2-1.2c0-0.3,0.1-0.6,0.4-0.9
	C126.7,36.6,127,36.4,127.4,36.5L127.4,36.5z M127.4,36.7c-0.4,0-0.8,0.2-1,0.6c-0.2,0.4-0.1,0.8,0.2,1.1c0.3,0.3,0.7,0.4,1.1,0.2
	c0.4-0.2,0.7-0.5,0.7-1c0-0.3-0.1-0.5-0.3-0.7C127.9,36.8,127.6,36.7,127.4,36.7L127.4,36.7z M118.9,32.1l1.5,1.6l1.4-1.6h3
	l-2.9,3.3l3,3.3h-3.1l-1.5-1.6l-1.4,1.6h-3l3-3.3l-3-3.3H118.9z M115.8,28.4v2.3h-3.4v1.5h3.4v2.2h-3.4v2h3.4v2.3H110V28.4H115.8z
	 M127.4,36.9c0.3,0,0.5,0.1,0.5,0.4c0,0.2-0.1,0.3-0.3,0.3l0,0c0.1,0,0.2,0.1,0.2,0.3c0,0.1,0,0.3,0.1,0.4h-0.3
	c0-0.2-0.1-0.3-0.1-0.5c0-0.1-0.1-0.2-0.3-0.2h-0.2v0.7h-0.2v-1.5L127.4,36.9z M127.4,37.1h-0.3v0.4h0.3c0.2,0,0.3-0.1,0.3-0.2
	S127.6,37.1,127.4,37.1L127.4,37.1z"/>
<path class="st1" d="M106,37c-0.9,0-1.5-0.8-1.5-1.7c0-0.9,0.5-1.8,1.5-1.8c1,0,1.4,0.9,1.4,1.8C107.5,36.2,107,37,106,37z
	 M97.3,34.3c0.1-0.6,0.7-1.1,1.3-1.1c0.7,0,1.2,0.4,1.3,1.1L97.3,34.3z M107.6,28.4v4.2h0c-0.5-0.6-1.3-0.9-2-0.8
	c-1.6,0-2.8,1.1-3.3,2.5c-0.5-1.6-1.7-2.5-3.6-2.5c-1.5,0-2.7,0.7-3.3,1.7v-1.3h-3.1v-1.4h3.4v-2.3h-6.2v10.2h2.8v-4.3H95
	c-0.1,0.3-0.1,0.7-0.1,1c0,2.1,1.7,3.6,3.8,3.6c1.8,0,3-0.8,3.6-2.3h-2.4c-0.3,0.4-0.6,0.6-1.2,0.6c-0.8,0-1.4-0.6-1.4-1.4h4.9
	c0.2,1.7,1.6,3.1,3.4,3.1c0.8,0,1.5-0.4,2-1h0v0.7h2.5V28.4H107.6z"/>
<path class="st2" d="M130.7,32.2h4.6V33h-3.8v1.9h3.5v0.7h-3.5v2.1h3.8v0.8h-4.7V32.2z"/>
<path class="st2" d="M135.9,33.9h1l1.1,1.6l1.1-1.6l0.9,0l-1.5,2.2l1.6,2.4h-1l-1.1-1.7l-1.1,1.7h-1l1.6-2.4L135.9,33.9z"/>
<path class="st2" d="M142.7,38c0.4,0,0.7-0.2,0.9-0.5c0.2-0.3,0.4-0.8,0.4-1.4c0-0.4-0.1-0.7-0.2-0.9c-0.2-0.5-0.6-0.8-1.1-0.8
	c-0.5,0-0.9,0.3-1.1,0.8c-0.1,0.3-0.2,0.6-0.2,1.1c0,0.4,0.1,0.7,0.2,0.9C141.8,37.8,142.2,38,142.7,38z M140.7,33.9h0.8v0.6
	c0.2-0.2,0.3-0.4,0.5-0.5c0.3-0.2,0.6-0.3,0.9-0.3c0.5,0,1,0.2,1.3,0.6c0.4,0.4,0.5,1,0.5,1.7c0,1-0.3,1.7-0.8,2.1
	c-0.3,0.3-0.7,0.4-1.2,0.4c-0.3,0-0.6-0.1-0.9-0.2c-0.1-0.1-0.3-0.2-0.5-0.4v2.3h-0.8V33.9z"/>
<path class="st2" d="M145.7,33.9h0.7v0.8c0.1-0.2,0.2-0.3,0.4-0.6c0.2-0.2,0.5-0.3,0.8-0.3c0,0,0,0,0.1,0c0,0,0.1,0,0.2,0v0.8
	c0,0-0.1,0-0.1,0c0,0-0.1,0-0.1,0c-0.4,0-0.7,0.1-0.9,0.4c-0.2,0.2-0.3,0.5-0.3,0.9v2.6h-0.8V33.9z"/>
<path class="st2" d="M150.5,33.8c0.3,0,0.6,0.1,0.9,0.2c0.3,0.2,0.5,0.3,0.7,0.6c0.2,0.2,0.3,0.5,0.3,0.8c0,0.2,0.1,0.5,0.1,1h-3.4
	c0,0.5,0.1,0.8,0.3,1.1c0.2,0.3,0.5,0.4,1,0.4c0.4,0,0.7-0.1,1-0.4c0.1-0.2,0.2-0.3,0.3-0.5h0.8c0,0.2-0.1,0.4-0.2,0.6
	c-0.1,0.2-0.2,0.4-0.4,0.5c-0.2,0.2-0.5,0.4-0.9,0.5c-0.2,0-0.4,0.1-0.6,0.1c-0.6,0-1.1-0.2-1.5-0.6c-0.4-0.4-0.6-1-0.6-1.7
	c0-0.7,0.2-1.3,0.6-1.8C149.3,34,149.8,33.8,150.5,33.8z M151.7,35.8c0-0.3-0.1-0.6-0.2-0.8c-0.2-0.4-0.6-0.6-1.1-0.6
	c-0.4,0-0.7,0.1-0.9,0.4c-0.2,0.3-0.4,0.6-0.4,1H151.7z"/>
<path class="st2" d="M153.9,37.1c0,0.3,0.1,0.5,0.2,0.6c0.2,0.2,0.5,0.4,1,0.4c0.3,0,0.5-0.1,0.8-0.2c0.2-0.1,0.3-0.3,0.3-0.6
	c0-0.2-0.1-0.3-0.3-0.5c-0.1-0.1-0.3-0.1-0.7-0.2l-0.6-0.2c-0.4-0.1-0.7-0.2-0.9-0.3c-0.3-0.2-0.5-0.5-0.5-0.9
	c0-0.4,0.2-0.8,0.5-1.1c0.3-0.3,0.7-0.4,1.3-0.4c0.7,0,1.2,0.2,1.5,0.6c0.2,0.3,0.3,0.5,0.3,0.8h-0.7c0-0.2-0.1-0.3-0.2-0.5
	c-0.2-0.2-0.5-0.3-0.9-0.3c-0.3,0-0.5,0.1-0.7,0.2c-0.1,0.1-0.2,0.3-0.2,0.4c0,0.2,0.1,0.4,0.3,0.5c0.1,0.1,0.3,0.1,0.5,0.2l0.5,0.1
	c0.6,0.1,0.9,0.3,1.1,0.4c0.3,0.2,0.5,0.5,0.5,0.9c0,0.4-0.2,0.8-0.5,1.1c-0.3,0.3-0.8,0.4-1.4,0.4c-0.7,0-1.2-0.2-1.5-0.5
	c-0.3-0.3-0.4-0.7-0.5-1.2H153.9z"/>
<path class="st2" d="M158.3,37.1c0,0.3,0.1,0.5,0.2,0.6c0.2,0.2,0.5,0.4,1,0.4c0.3,0,0.5-0.1,0.8-0.2c0.2-0.1,0.3-0.3,0.3-0.6
	c0-0.2-0.1-0.3-0.3-0.5c-0.1-0.1-0.3-0.1-0.7-0.2l-0.6-0.2c-0.4-0.1-0.7-0.2-0.9-0.3c-0.3-0.2-0.5-0.5-0.5-0.9
	c0-0.4,0.2-0.8,0.5-1.1c0.3-0.3,0.7-0.4,1.3-0.4c0.7,0,1.2,0.2,1.5,0.6c0.2,0.3,0.3,0.5,0.3,0.8h-0.7c0-0.2-0.1-0.3-0.2-0.5
	c-0.2-0.2-0.5-0.3-0.9-0.3c-0.3,0-0.5,0.1-0.7,0.2c-0.1,0.1-0.2,0.3-0.2,0.4c0,0.2,0.1,0.4,0.3,0.5c0.1,0.1,0.3,0.1,0.5,0.2l0.5,0.1
	c0.6,0.1,0.9,0.3,1.1,0.4c0.3,0.2,0.5,0.5,0.5,0.9c0,0.4-0.2,0.8-0.5,1.1c-0.3,0.3-0.8,0.4-1.4,0.4c-0.7,0-1.2-0.2-1.5-0.5
	c-0.3-0.3-0.4-0.7-0.5-1.2H158.3z"/>
</svg>
